<svg width="512" height="512" viewBox="0 0 512 512" fill="none" xmlns="http://www.w3.org/2000/svg">
  <rect width="512" height="512" rx="120" fill="#F3F6FA"/>
  <rect x="96" y="96" width="320" height="320" rx="92" fill="#FFFFFF" stroke="#D7DEE9" stroke-width="12"/>
  <path d="M168 208V176C168 171.582 171.582 168 176 168H208" stroke="#0F172A" stroke-width="24" stroke-linecap="round"/>
  <path d="M344 208V176C344 171.582 340.418 168 336 168H304" stroke="#0F172A" stroke-width="24" stroke-linecap="round"/>
  <path d="M168 304V336C168 340.418 171.582 344 176 344H208" stroke="#0F172A" stroke-width="24" stroke-linecap="round"/>
  <path d="M344 304V336C344 340.418 340.418 344 336 344H304" stroke="#0F172A" stroke-width="24" stroke-linecap="round"/>
  <path d="M216 300L294 222" stroke="#0F172A" stroke-width="28" stroke-linecap="round"/>
  <path d="M246 222H294V270" stroke="#0F172A" stroke-width="28" stroke-linecap="round" stroke-linejoin="round"/>
  <rect x="188" y="280" width="64" height="20" rx="10" fill="#CBD5E1"/>
  <rect x="188" y="320" width="136" height="14" rx="7" fill="#E2E8F0"/>
</svg>
