<svg width="1400" height="900" viewBox="0 0 1400 900" fill="none" xmlns="http://www.w3.org/2000/svg">
  <rect width="1400" height="900" fill="#F3F5F8"/>
  <rect x="72" y="60" width="1256" height="780" rx="40" fill="#FCFCFD" stroke="#DEE5EE" stroke-width="2"/>

  <g>
    <rect x="118" y="104" width="72" height="72" rx="22" fill="#FFFFFF" stroke="#D7DEE9" stroke-width="3"/>
    <path d="M136 129V120C136 118.343 137.343 117 139 117H148" stroke="#0F172A" stroke-width="6" stroke-linecap="round"/>
    <path d="M172 129V120C172 118.343 170.657 117 169 117H160" stroke="#0F172A" stroke-width="6" stroke-linecap="round"/>
    <path d="M136 151V160C136 161.657 137.343 163 139 163H148" stroke="#0F172A" stroke-width="6" stroke-linecap="round"/>
    <path d="M172 151V160C172 161.657 170.657 163 169 163H160" stroke="#0F172A" stroke-width="6" stroke-linecap="round"/>
    <rect x="148" y="132" width="12" height="16" rx="4" fill="#0F172A"/>
  </g>

  <text x="214" y="148" fill="#0F172A" font-family="SF Pro Display, Avenir Next, Helvetica Neue, sans-serif" font-size="44" font-weight="600" letter-spacing="-1.4">SelectPilot</text>
  <text x="214" y="184" fill="#64748B" font-family="SF Pro Display, Avenir Next, Helvetica Neue, sans-serif" font-size="18" font-weight="500">Privacy-first local execution layer for selected text</text>

  <text x="118" y="286" fill="#0F172A" font-family="SF Pro Display, Avenir Next, Helvetica Neue, sans-serif" font-size="58" font-weight="600" letter-spacing="-2.2">Turn selected text</text>
  <text x="118" y="352" fill="#0F172A" font-family="SF Pro Display, Avenir Next, Helvetica Neue, sans-serif" font-size="58" font-weight="600" letter-spacing="-2.2">into structured output.</text>

  <text x="118" y="424" fill="#5F6B7C" font-family="SF Pro Text, Avenir Next, Helvetica Neue, sans-serif" font-size="24" font-weight="500">Summarize, rewrite, extract, and act locally through Ollama.</text>
  <text x="118" y="460" fill="#5F6B7C" font-family="SF Pro Text, Avenir Next, Helvetica Neue, sans-serif" font-size="24" font-weight="500">No cloud inference on the core selected-text path.</text>

  <g>
    <rect x="118" y="520" width="188" height="56" rx="18" fill="#0F172A"/>
    <text x="164" y="555" fill="#F8FAFC" font-family="SF Pro Display, Avenir Next, Helvetica Neue, sans-serif" font-size="22" font-weight="600">Extract JSON</text>
    <rect x="324" y="520" width="216" height="56" rx="18" fill="#FFFFFF" stroke="#D7DEE9" stroke-width="2"/>
    <text x="370" y="555" fill="#334155" font-family="SF Pro Display, Avenir Next, Helvetica Neue, sans-serif" font-size="22" font-weight="600">Local-only ready</text>
  </g>

  <g>
    <rect x="766" y="154" width="470" height="584" rx="30" fill="#FFFFFF" stroke="#D7DEE9" stroke-width="2"/>
    <rect x="792" y="182" width="418" height="54" rx="18" fill="#F7F8FA" stroke="#E3E8EF"/>
    <text x="816" y="216" fill="#6B7280" font-family="SF Pro Display, Avenir Next, Helvetica Neue, sans-serif" font-size="13" font-weight="700" letter-spacing="1.2">ENVIRONMENT TRUTH</text>

    <text x="792" y="286" fill="#6B7280" font-family="SF Pro Display, Avenir Next, Helvetica Neue, sans-serif" font-size="12" font-weight="700" letter-spacing="1.2">SELECTION</text>
    <rect x="792" y="304" width="418" height="90" rx="20" fill="#FBFBFC" stroke="#E3E8EF"/>
    <text x="818" y="338" fill="#0F172A" font-family="SF Pro Display, Avenir Next, Helvetica Neue, sans-serif" font-size="22" font-weight="600">Turn the selected text into</text>
    <text x="818" y="368" fill="#0F172A" font-family="SF Pro Display, Avenir Next, Helvetica Neue, sans-serif" font-size="22" font-weight="600">a practical plan.</text>

    <text x="792" y="442" fill="#6B7280" font-family="SF Pro Display, Avenir Next, Helvetica Neue, sans-serif" font-size="12" font-weight="700" letter-spacing="1.2">PRIMARY ACTION</text>
    <rect x="792" y="460" width="176" height="50" rx="16" fill="#0F172A"/>
    <text x="835" y="492" fill="#F8FAFC" font-family="SF Pro Display, Avenir Next, Helvetica Neue, sans-serif" font-size="20" font-weight="600">Extract JSON</text>

    <text x="792" y="556" fill="#6B7280" font-family="SF Pro Display, Avenir Next, Helvetica Neue, sans-serif" font-size="12" font-weight="700" letter-spacing="1.2">STRUCTURED RESULT</text>
    <rect x="792" y="574" width="418" height="128" rx="22" fill="#FBFBFC" stroke="#E3E8EF"/>
    <text x="818" y="614" fill="#0F172A" font-family="SF Mono, Menlo, monospace" font-size="17">{</text>
    <text x="844" y="614" fill="#334155" font-family="SF Mono, Menlo, monospace" font-size="17">"summary": "Create an action-ready brief",</text>
    <text x="844" y="646" fill="#334155" font-family="SF Mono, Menlo, monospace" font-size="17">"actions": ["Ship MVP", "Record demo"],</text>
    <text x="844" y="678" fill="#334155" font-family="SF Mono, Menlo, monospace" font-size="17">"risks": ["Scope drift"]</text>
  </g>
</svg>
