<svg width="1280" height="800" viewBox="0 0 1280 800" fill="none" xmlns="http://www.w3.org/2000/svg">
  <rect width="1280" height="800" fill="#F3F5F8"/>
  <rect x="52" y="44" width="1176" height="712" rx="34" fill="#FCFCFD" stroke="#DEE5EE" stroke-width="2"/>

  <text x="96" y="108" fill="#6B7280" font-family="Inter, Segoe UI, Arial, sans-serif" font-size="14" font-weight="700" letter-spacing="1">FIRST-RUN SETUP</text>
  <text x="96" y="152" fill="#0F172A" font-family="Inter, Segoe UI, Arial, sans-serif" font-size="33" font-weight="700">Detect. Install. Benchmark. Assign profile.</text>
  <text x="96" y="186" fill="#64748B" font-family="Inter, Segoe UI, Arial, sans-serif" font-size="19">Choose the smallest viable model for the workload, not the biggest one the machine can tolerate.</text>

  <rect x="96" y="226" width="1088" height="102" rx="22" fill="#FFFFFF" stroke="#D7DEE9" stroke-width="2"/>
  <text x="124" y="260" fill="#6B7280" font-family="Inter, Segoe UI, Arial, sans-serif" font-size="12" font-weight="700" letter-spacing="1">ENVIRONMENT TRUTH</text>
  <g font-family="Inter, Segoe UI, Arial, sans-serif" font-size="14" font-weight="600" fill="#0F172A">
    <rect x="124" y="278" width="164" height="32" rx="16" fill="#EEF2F7"/>
    <text x="146" y="299">Execution: Local</text>

    <rect x="304" y="278" width="198" height="32" rx="16" fill="#EEF2F7"/>
    <text x="326" y="299">Model: qwen2.5:0.5b</text>

    <rect x="518" y="278" width="234" height="32" rx="16" fill="#EEF2F7"/>
    <text x="540" y="299">Boundary: stays local</text>

    <rect x="768" y="278" width="138" height="32" rx="16" fill="#EEF2F7"/>
    <text x="790" y="299">Profile: Fast</text>

    <rect x="922" y="278" width="166" height="32" rx="16" fill="#EEF2F7"/>
    <text x="944" y="299">Health: 1934 ms</text>
  </g>

  <rect x="96" y="372" width="336" height="260" rx="22" fill="#FBFBFC" stroke="#E3E8EF"/>
  <text x="124" y="410" fill="#6B7280" font-family="Inter, Segoe UI, Arial, sans-serif" font-size="12" font-weight="700" letter-spacing="1">FAST</text>
  <text x="124" y="446" fill="#0F172A" font-family="Inter, Segoe UI, Arial, sans-serif" font-size="30" font-weight="700">Fast profile</text>
  <text x="124" y="480" fill="#64748B" font-family="Inter, Segoe UI, Arial, sans-serif" font-size="18">Smallest viable model for extraction, summaries, and short transforms.</text>
  <rect x="124" y="536" width="172" height="44" rx="14" fill="#0F172A"/>
  <text x="210" y="564" fill="#F8FAFC" text-anchor="middle" font-family="Inter, Segoe UI, Arial, sans-serif" font-size="18" font-weight="700">Recommended</text>

  <rect x="472" y="372" width="336" height="260" rx="22" fill="#FBFBFC" stroke="#E3E8EF"/>
  <text x="500" y="410" fill="#6B7280" font-family="Inter, Segoe UI, Arial, sans-serif" font-size="12" font-weight="700" letter-spacing="1">BALANCED</text>
  <text x="500" y="446" fill="#0F172A" font-family="Inter, Segoe UI, Arial, sans-serif" font-size="30" font-weight="700">Balanced profile</text>
  <text x="500" y="480" fill="#64748B" font-family="Inter, Segoe UI, Arial, sans-serif" font-size="18">Higher quality when the machine can justify it without overprovisioning.</text>

  <rect x="848" y="372" width="336" height="260" rx="22" fill="#FBFBFC" stroke="#E3E8EF"/>
  <text x="876" y="410" fill="#6B7280" font-family="Inter, Segoe UI, Arial, sans-serif" font-size="12" font-weight="700" letter-spacing="1">ADVANCED</text>
  <text x="876" y="446" fill="#0F172A" font-family="Inter, Segoe UI, Arial, sans-serif" font-size="30" font-weight="700">Advanced profile</text>
  <text x="876" y="480" fill="#64748B" font-family="Inter, Segoe UI, Arial, sans-serif" font-size="18">Manual opt-in for heavier reasoning. Never the default recommendation.</text>
</svg>
